<?xml version="1.0" encoding="iso-8859-1"?>
<!-- Generator: Adobe Illustrator 19.0.0, SVG Export Plug-In . SVG Version: 6.00 Build 0)  -->
<svg version="1.1" id="Layer_1" xmlns="http://www.w3.org/2000/svg" xmlns:xlink="http://www.w3.org/1999/xlink" x="0px" y="0px"
	 viewBox="0 0 512 512" style="enable-background:new 0 0 512 512;" xml:space="preserve">
<g>
	<path style="fill:#E68842;" d="M503.419,27.07c-3.762-11.892-16.462-18.483-28.35-14.722L339.45,55.251
		c-2.283,0.721-4.435,1.801-6.377,3.2l-93.844,67.515l-99.586,14.274c-0.634,0.09-1.263,0.208-1.887,0.351L25.028,166.667
		c-12.154,2.811-19.729,14.944-16.916,27.098c2.415,10.442,11.708,17.503,21.987,17.503c1.685,0,3.399-0.191,5.112-0.587
		l111.794-25.861l104.123-14.923c3.605-0.515,7.031-1.897,9.987-4.024l95.41-68.641l132.173-41.815
		C500.59,51.656,507.181,38.963,503.419,27.07z"/>
	<path style="fill:#E68842;" d="M495.231,136.129c-5.81-4.254-13.3-5.486-20.162-3.311l-135.62,42.903
		c-2.283,0.721-4.435,1.801-6.377,3.2l-93.842,67.515l-99.587,14.274c-0.634,0.089-1.263,0.208-1.887,0.351L25.026,287.136
		c-10.243,2.37-17.497,11.494-17.497,22.008v176.503c0,12.475,10.114,22.588,22.588,22.588h451.765
		c12.475,0,22.588-10.113,22.588-22.588V154.353C504.471,147.153,501.039,140.386,495.231,136.129z"/>
</g>
<g>
	<path style="fill:#DD4C42;" d="M142.846,132.48c-16.607,0-30.118,13.512-30.118,30.118s13.511,30.118,30.118,30.118
		s30.118-13.512,30.118-30.118C172.964,145.991,159.455,132.48,142.846,132.48z"/>
	<path style="fill:#DD4C42;" d="M247.921,117.421c-16.607,0-30.118,13.512-30.118,30.118s13.511,30.118,30.118,30.118
		s30.118-13.512,30.118-30.118C278.039,130.932,264.528,117.421,247.921,117.421z"/>
	<path style="fill:#DD4C42;" d="M346.263,46.667c-16.607,0-30.118,13.512-30.118,30.118s13.511,30.118,30.118,30.118
		S376.38,93.39,376.38,76.785S362.871,46.667,346.263,46.667z"/>
	<path style="fill:#DD4C42;" d="M30.118,158.556C13.511,158.556,0,172.068,0,188.674s13.511,30.118,30.118,30.118
		s30.118-13.512,30.118-30.118S46.725,158.556,30.118,158.556z"/>
	<path style="fill:#DD4C42;" d="M481.882,3.765c-16.607,0-30.118,13.512-30.118,30.118S465.275,64,481.882,64
		C498.489,64,512,50.488,512,33.882S498.489,3.765,481.882,3.765z"/>
	<path style="fill:#DD4C42;" d="M495.231,136.129c-5.81-4.254-13.3-5.486-20.162-3.311l-135.62,42.903
		c-2.283,0.721-4.435,1.801-6.377,3.2L256,234.371v273.864h225.882c12.475,0,22.588-10.113,22.588-22.588V154.353
		C504.471,147.153,501.039,140.386,495.231,136.129z"/>
</g>
<g>
</g>
<g>
</g>
<g>
</g>
<g>
</g>
<g>
</g>
<g>
</g>
<g>
</g>
<g>
</g>
<g>
</g>
<g>
</g>
<g>
</g>
<g>
</g>
<g>
</g>
<g>
</g>
<g>
</g>
</svg>
